<?xml version="1.0" encoding="utf-8"?>
<svg width="128" height="128" viewBox="0 0 128 128" fill="none" xmlns="http://www.w3.org/2000/svg">
  <path d="M 23.562 86.372 L 104.231 86.372 C 109.993 86.372 114.738 90.682 114.738 95.914 L 114.738 98.172 C 114.738 103.405 109.993 107.714 104.231 107.714 L 23.562 107.714 C 17.8 107.714 13.055 103.405 13.055 98.172 L 13.055 95.914 C 13.055 90.682 17.8 86.372 23.562 86.372 Z M 10.673 40.169 C 9.769 34.899 15.644 31.186 19.599 34.42 L 38.919 50.591 C 41.743 52.986 45.923 51.908 47.505 48.435 L 52.928 36.456 L 58.577 23.879 C 60.724 19.087 67.277 19.087 69.423 23.879 L 75.072 36.456 L 80.496 48.435 C 82.077 51.908 86.258 52.986 89.082 50.591 L 108.402 34.42 C 112.356 31.186 118.231 34.899 117.327 40.169 L 109.419 85.448 L 18.582 85.448 L 10.673 40.169 Z" style="fill: #2c2e33;"/>
  <path d="M 10.075 39.933 C 9.171 34.562 15.046 30.778 19.001 34.074 L 38.32 50.551 C 41.145 52.991 45.325 51.893 46.907 48.353 L 57.979 23.333 C 60.126 18.452 66.679 18.452 68.825 23.333 L 79.897 48.353 C 81.479 51.893 85.66 52.991 88.484 50.551 L 107.804 34.074 C 111.758 30.778 117.633 34.562 116.729 39.933 L 108.821 86.068 L 17.984 86.068 L 10.075 39.933 Z" stroke="#1a1b1e" stroke-width="4" stroke-linejoin="round" style=""/>
  <path d="M 23.665 86 L 104.334 86 C 110.096 86 114.841 90.31 114.841 95.542 L 114.841 97.8 C 114.841 103.033 110.096 107.342 104.334 107.342 L 23.665 107.342 C 17.903 107.342 13.158 103.033 13.158 97.8 L 13.158 95.542 C 13.158 90.31 17.903 86 23.665 86 Z" stroke="#1a1b1e" stroke-width="4" stroke-linejoin="round" style=""/>
  <path d="M 55.989 49.485 L 64.3 44.078 L 64.3 77.922 M 54.387 77.922 L 73.613 77.922" stroke="#5c5f66" stroke-width="8" stroke-linecap="round" stroke-linejoin="round" style=""/>
</svg>