<svg width="128" height="128" viewBox="0 0 128 128" fill="none" xmlns="http://www.w3.org/2000/svg">
  <path
    d="M20 104.5h88c4.14 0 7.5 3.36 7.5 7.5v4c0 4.14-3.36 7.5-7.5 7.5H20c-4.14 0-7.5-3.36-7.5-7.5v-4c0-4.14 3.36-7.5 7.5-7.5Z"
    fill="var(--color-paper-600, #25262b)"
    stroke="var(--color-paper-300, #5c5f66)"
    stroke-width="3"
  />
  <path
    d="M20 49 31.5 104h65L108 49 81 72.5c-1.7 1.5-4.4.8-5.1-1.3L64 34 52.1 71.2c-.7 2.1-3.4 2.8-5.1 1.3L20 49Z"
    fill="var(--color-paper-600, #25262b)"
    stroke="var(--color-paper-300, #5c5f66)"
    stroke-linejoin="round"
    stroke-width="4"
  />
  <circle
    cx="16"
    cy="42"
    r="9.5"
    fill="var(--color-paper-600, #25262b)"
    stroke="var(--color-paper-300, #5c5f66)"
    stroke-width="3"
  />
  <circle
    cx="64"
    cy="24"
    r="10.5"
    fill="var(--color-paper-600, #25262b)"
    stroke="var(--color-paper-300, #5c5f66)"
    stroke-width="3"
  />
  <circle
    cx="112"
    cy="42"
    r="9.5"
    fill="var(--color-paper-600, #25262b)"
    stroke="var(--color-paper-300, #5c5f66)"
    stroke-width="3"
  />
  <path d="M58.5 68 66.5 62.5h5.5V92h7v10.5H55V92h8V79.5l-6 4V72l1.5-4Z" fill="var(--color-paper-200, #909296)" />
</svg>
