<svg height="512" viewBox="0 0 96 96" width="512" xmlns="http://www.w3.org/2000/svg"><g id="_29-auction"><g id="Glyph"><path d="m0 88h56v8h-56z"/><path d="m48 79.935a4 4 0 0 0 -4-4h-32a4 4 0 0 0 -4 4v4.065h40z"/><path d="m54.426 47.231a27.906 27.906 0 0 0 -4.639 6.674l32.924 32.924a4 4 0 0 0 5.656 0l5.657-5.657a4 4 0 0 0 0-5.657l-32.924-32.915a27.263 27.263 0 0 0 -6.674 4.631z"/><path d="m34.627 27.432a34.686 34.686 0 0 1 -10.34 6.629l20.674 20.674a35.253 35.253 0 0 1 6.639-10.335 34.715 34.715 0 0 1 10.34-6.63l-20.675-20.67a35.282 35.282 0 0 1 -6.638 10.332z"/><rect height="40" rx="4" transform="matrix(.707 -.707 .707 .707 4.201 48.034)" width="16" x="52.083" y="-1.054"/><rect height="40" rx="4" transform="matrix(.707 -.707 .707 .707 -29.74 33.976)" width="16" x="18.142" y="32.887"/></g></g></svg>