<?xml version="1.0" encoding="utf-8"?>
<!-- Generator: Adobe Illustrator 26.0.2, SVG Export Plug-In . SVG Version: 6.00 Build 0)  -->
<svg version="1.1" id="Слой_2" xmlns="http://www.w3.org/2000/svg" xmlns:xlink="http://www.w3.org/1999/xlink" x="0px" y="0px"
	 viewBox="0 0 2000 2000" style="enable-background:new 0 0 2000 2000;" xml:space="preserve">
<style type="text/css">
	.st0{clip-path:url(#SVGID_00000016772281245041957020000001374259963443093950_);}
	.st1{fill:#020203;}
	.st2{fill:url(#SVGID_00000054967079573742564380000017652387762864992187_);}
	.st3{fill:url(#SVGID_00000088826358805253800460000007842827576761057433_);}
	.st4{fill:url(#SVGID_00000181790633005704099990000017668753097672274824_);}
	.st5{display:none;}
	.st6{display:inline;}
	.st7{clip-path:url(#SVGID_00000079469722550516007500000008210087855874978186_);}
	.st8{clip-path:url(#SVGID_00000082335994356361580920000000782060684912268933_);}
	.st9{clip-path:url(#SVGID_00000010313159905195515760000006455264002842760842_);}
</style>
<g>
	<g>
		<defs>
			<path id="SVGID_1_" d="M995.9,1780.1c-55.4,0-110.7-5.9-165.3-17.8c-99-21.5-191.7-61.6-275.7-119S400,1514,344,1429.6
				c-58-87.4-97.3-184.3-116.8-288.3c-19.5-103.9-18.1-208.5,4.2-311c21.5-99,61.6-191.7,119-275.7c57.4-84,129.3-154.9,213.7-210.9
				c87.4-58,184.3-97.3,288.3-116.8c103.9-19.5,208.5-18.1,311,4.2c99,21.5,191.7,61.6,275.7,119s154.9,129.3,210.9,213.7
				c58,87.4,97.3,184.3,116.8,288.3s18.1,208.5-4.2,311c-21.5,99-61.6,191.7-119,275.7c-57.4,84-129.3,154.9-213.7,210.9
				c-87.4,58-184.3,97.3-288.3,116.8C1093.1,1775.6,1044.4,1780.1,995.9,1780.1z"/>
		</defs>
		<clipPath id="SVGID_00000011010837119205853790000016092329270008613782_">
			<use xlink:href="#SVGID_1_"  style="overflow:visible;"/>
		</clipPath>
		<g style="clip-path:url(#SVGID_00000011010837119205853790000016092329270008613782_);">
		</g>
	</g>
</g>
<circle class="st1" cx="1000" cy="996.1" r="737.8"/>
<linearGradient id="SVGID_00000040545295427343978410000006516009964554062724_" gradientUnits="userSpaceOnUse" x1="325.4758" y1="995.2176" x2="1730.6115" y2="1008.2329">
	<stop  offset="0.2073" style="stop-color:#4BBCF5"/>
	<stop  offset="0.2221" style="stop-color:#4DB7F4"/>
	<stop  offset="0.4313" style="stop-color:#657BEB"/>
	<stop  offset="0.6393" style="stop-color:#6C6AE3"/>
	<stop  offset="0.6628" style="stop-color:#6B66E1"/>
	<stop  offset="0.7763" style="stop-color:#6857D8"/>
</linearGradient>
<path style="fill:url(#SVGID_00000040545295427343978410000006516009964554062724_);" d="M1000.3,847.9L770.6,560
	c-7.6-9.5-19.1-15-31.3-15.1l-225-0.1l364.4,455.4l121.6,152l232.6,290.7c7.7,9.6,19.3,15.1,31.6,15l221.2-2L1122,1000.3
	L1000.3,847.9z"/>
<linearGradient id="SVGID_00000063602656150706064070000001445322442507918752_" gradientUnits="userSpaceOnUse" x1="1084.5883" y1="873.9035" x2="1374.84" y2="575.3933">
	<stop  offset="0" style="stop-color:#8573EC"/>
	<stop  offset="6.628317e-02" style="stop-color:#8973ED"/>
	<stop  offset="1" style="stop-color:#C672F8"/>
</linearGradient>
<path style="fill:url(#SVGID_00000063602656150706064070000001445322442507918752_);" d="M1125.4,960.1c4.1,4.8,18.3,3.5,22.3-1.3
	l344.2-414.9l-216.4,0.1c-11.7,0-22.8,5.5-30.1,15.1l-217.3,267.8c-3.5,4.3-3.4,10.5,0.2,14.8L1125.4,960.1z"/>
<linearGradient id="SVGID_00000008860447380341993110000014857812230572946111_" gradientUnits="userSpaceOnUse" x1="524.071" y1="1234.5851" x2="1063.8202" y2="1264.4843">
	<stop  offset="7.949257e-02" style="stop-color:#4E99EE"/>
	<stop  offset="0.3283" style="stop-color:#5095ED"/>
	<stop  offset="0.5944" style="stop-color:#5788EA"/>
	<stop  offset="0.7464" style="stop-color:#5C7DE7"/>
</linearGradient>
<path style="fill:url(#SVGID_00000008860447380341993110000014857812230572946111_);" d="M857.3,1033.5c-6.3-7.6-18-7.7-24.4-0.1
	l-355.6,423.3l216.4-0.3c11.8,0.1,26.5-9.1,33.9-18.6l223.9-269.6c3.4-4.2,6.6-12.7,3.2-16.9L857.3,1033.5z"/>
<g class="st5">
	<g class="st6">
		<defs>
			<path id="SVGID_00000067922657899536766630000001197946057703523970_" d="M1125.4,960.1c4.1,4.8,18.3,3.5,22.3-1.3l344.2-414.9
				l-216.4,0.1c-11.7,0-22.8,5.5-30.1,15.1l-217.3,267.8c-3.5,4.3-3.4,10.5,0.2,14.8L1125.4,960.1z"/>
		</defs>
		<clipPath id="SVGID_00000154393336827548212050000012262840719415235510_">
			<use xlink:href="#SVGID_00000067922657899536766630000001197946057703523970_"  style="overflow:visible;"/>
		</clipPath>
		<g style="clip-path:url(#SVGID_00000154393336827548212050000012262840719415235510_);">
		</g>
	</g>
</g>
<g class="st5">
	<g class="st6">
		<defs>
			<path id="SVGID_00000136394782765173184100000001090531649107489439_" d="M998.4,847.9L768.7,560c-7.6-9.5-19.1-15-31.3-15.1
				l-225-0.1l364.4,455.4l121.6,152L1231,1443c7.7,9.6,19.3,15.1,31.6,15l221.2-2L1120,1000.3L998.4,847.9z"/>
		</defs>
		<clipPath id="SVGID_00000079487524797162463790000013717908494541057954_">
			<use xlink:href="#SVGID_00000136394782765173184100000001090531649107489439_"  style="overflow:visible;"/>
		</clipPath>
		<g style="clip-path:url(#SVGID_00000079487524797162463790000013717908494541057954_);">
		</g>
	</g>
</g>
<g class="st5">
	<g class="st6">
		<defs>
			<path id="SVGID_00000174601076258617488440000015744864170508185734_" d="M857.3,1033.5c-6.3-7.6-18-7.7-24.4-0.1l-355.6,423.3
				l216.4-0.3c11.8,0.1,26.5-9.1,33.9-18.6l223.9-269.6c3.4-4.2,6.6-12.7,3.2-16.9L857.3,1033.5z"/>
		</defs>
		<clipPath id="SVGID_00000070118948949013424410000007217348975363335346_">
			<use xlink:href="#SVGID_00000174601076258617488440000015744864170508185734_"  style="overflow:visible;"/>
		</clipPath>
		<g style="clip-path:url(#SVGID_00000070118948949013424410000007217348975363335346_);">
			<g>
				<defs>
					<rect id="SVGID_00000040558114063959809350000002414700205498300588_" x="472.3" y="1022.7" width="488.9" height="438.9"/>
				</defs>
				<clipPath id="SVGID_00000182526833857708532960000010754007034103763855_">
					<use xlink:href="#SVGID_00000040558114063959809350000002414700205498300588_"  style="overflow:visible;"/>
				</clipPath>
				
					<g transform="matrix(1 0 0 1 0 -6.103516e-05)" style="clip-path:url(#SVGID_00000182526833857708532960000010754007034103763855_);">
					
						<image style="overflow:visible;" width="1020" height="915" xlink:href="9B130E373A51B897.jpg"  transform="matrix(0.48 0 0 0.48 471.84 1022.72)">
					</image>
				</g>
			</g>
		</g>
	</g>
</g>
</svg>
