<svg width="29" height="15" viewBox="0 0 29 15" fill="none" xmlns="http://www.w3.org/2000/svg">
<path d="M21.063 5.802C21.0648 5.56082 21.1624 5.33025 21.3341 5.16093C21.5059 4.99161 21.7378 4.8974 21.979 4.899C22.2202 4.8974 22.4521 4.99161 22.6239 5.16093C22.7956 5.33025 22.8932 5.56082 22.895 5.802C22.8932 6.04317 22.7956 6.27375 22.6239 6.44307C22.4521 6.61239 22.2202 6.7066 21.979 6.705C21.7378 6.7066 21.5059 6.61239 21.3341 6.44307C21.1624 6.27375 21.0648 6.04317 21.063 5.802ZM19.079 7.759C19.0798 7.6395 19.1041 7.52132 19.1506 7.41121C19.197 7.30111 19.2647 7.20123 19.3498 7.11728C19.4348 7.03334 19.5356 6.96697 19.6463 6.92197C19.757 6.87696 19.8755 6.85421 19.995 6.855C20.2362 6.85367 20.468 6.94813 20.6396 7.11764C20.8112 7.28714 20.9084 7.51783 20.91 7.759C20.9081 8 20.8108 8.23042 20.6392 8.39971C20.4677 8.569 20.236 8.66333 19.995 8.662C19.7538 8.6636 19.5219 8.56939 19.3501 8.40007C19.1784 8.23075 19.0809 8.00017 19.079 7.759ZM23.963 6.855C23.8435 6.85421 23.725 6.87696 23.6143 6.92197C23.5036 6.96697 23.4028 7.03334 23.3178 7.11728C23.2327 7.20123 23.165 7.30111 23.1186 7.41121C23.0721 7.52132 23.0478 7.6395 23.047 7.759C23.047 8.258 23.457 8.662 23.963 8.662C24.2042 8.6636 24.4361 8.56939 24.6079 8.40007C24.7796 8.23075 24.8771 8.00017 24.879 7.759C24.8782 7.6395 24.8539 7.52132 24.8074 7.41121C24.761 7.30111 24.6933 7.20123 24.6082 7.11728C24.5232 7.03334 24.4224 6.96697 24.3117 6.92197C24.201 6.87696 24.0825 6.85421 23.963 6.855ZM21.063 9.716C21.0638 9.5965 21.0881 9.47832 21.1346 9.36821C21.181 9.25811 21.2487 9.15823 21.3338 9.07428C21.4188 8.99034 21.5196 8.92397 21.6303 8.87897C21.741 8.83397 21.8595 8.81121 21.979 8.812C22.0985 8.81121 22.217 8.83397 22.3277 8.87897C22.4384 8.92397 22.5392 8.99034 22.6242 9.07428C22.7093 9.15823 22.777 9.25811 22.8234 9.36821C22.8699 9.47832 22.8942 9.5965 22.895 9.716C22.8932 9.95717 22.7956 10.1878 22.6239 10.3571C22.4521 10.5264 22.2202 10.6206 21.979 10.619C21.7378 10.6206 21.5059 10.5264 21.3341 10.3571C21.1624 10.1878 21.0648 9.95717 21.063 9.716Z" fill="#44AB4F"/>
<path fill-rule="evenodd" clip-rule="evenodd" d="M15.704 11.208L15.707 11.211L15.709 11.215C17.135 13.245 18.946 14.834 21.903 14.834C25.816 14.834 29 11.694 29 7.834C29 3.979 25.81 0.834 21.903 0.834C19.728 0.834 18.044 1.752 16.803 3.023C15.588 4.266 14.735 5.811 13.894 7.336L13.81 7.489C12.95 9.046 12.081 10.566 11.052 11.627C10.538 12.157 9.995 12.592 9.352 12.891C8.707 13.192 7.977 13.351 7.097 13.351C3.997 13.351 1.505 10.892 1.505 7.834C1.505 4.791 4.012 2.318 7.097 2.318C9.601 2.318 11.089 3.716 12.334 5.584C12.597 5.128 12.877 4.664 13.174 4.194C11.764 2.293 9.96 0.835 7.097 0.835C3.184 0.834 0 3.974 0 7.834C0 11.688 3.19 14.834 7.097 14.834C9.252 14.834 10.935 13.916 12.164 12.645C12.994 11.788 13.652 10.783 14.257 9.737L14.537 9.252L14.794 9.749C14.989 10.126 15.368 10.756 15.704 11.208ZM16.351 9.518L16.354 9.522C17.664 11.657 19.198 13.35 21.903 13.35C24.988 13.35 27.496 10.877 27.496 7.834C27.496 4.775 25.004 2.318 21.903 2.318C20.096 2.318 18.933 2.964 17.883 4.04C17.026 4.916 16.233 6.297 15.533 7.537L15.479 7.633L15.499 7.741C15.546 7.977 15.706 8.32 15.865 8.63C16.031 8.953 16.219 9.285 16.349 9.513L16.351 9.518Z" fill="#44AB4F"/>
<path d="M6.41 5.35H7.632V7.157H9.463V8.36H7.632V10.166H6.41V8.361H4.579V7.157H6.41V5.35Z" fill="#44AB4F"/>
</svg>
