<svg width="101" height="100" viewBox="0 0 101 100" fill="none" xmlns="http://www.w3.org/2000/svg">
<g clip-path="url(#clip0_2_2)">
<path fill-rule="evenodd" clip-rule="evenodd" d="M7.52944 7.02944C0.5 14.0589 0.5 25.3726 0.5 48V52C0.5 74.6274 0.5 85.9411 7.52944 92.9706C14.5589 100 25.8726 100 48.5 100H52.5C75.1274 100 86.4411 100 93.4706 92.9706C100.5 85.9411 100.5 74.6274 100.5 52V48C100.5 25.3726 100.5 14.0589 93.4706 7.02944C86.4411 0 75.1274 0 52.5 0H48.5C25.8726 0 14.5589 0 7.52944 7.02944ZM17.3752 30.4169C17.9168 56.4169 30.9167 72.0418 53.7084 72.0418H55.0003V57.1668C63.3753 58.0001 69.7082 64.1252 72.2498 72.0418H84.0835C80.8335 60.2085 72.2914 53.6668 66.9581 51.1668C72.2914 48.0835 79.7915 40.5835 81.5831 30.4169H70.8328C68.4995 38.6669 61.5836 46.1668 55.0003 46.8751V30.4169H44.2499V59.2501C37.5833 57.5835 29.1668 49.5002 28.7918 30.4169H17.3752Z" fill="#3b96ff"/>
</g>
<defs>
<clipPath id="clip0_2_2">
<rect width="100" height="100" fill="#3b96ff" transform="translate(0.5)"/>
</clipPath>
</defs>
</svg>
